<svg width="92" height="18" viewBox="0 0 92 18" fill="none" xmlns="http://www.w3.org/2000/svg">
<path d="M80.1303 17.7907L78.9196 6.27907L84 5.51163L82.4806 17.5814L80.1303 17.7907ZM79.6555 3.69768C79.2282 3.26357 79.0145 2.75194 79.0145 2.16279C79.0145 1.57364 79.2282 1.06977 79.6555 0.651163C80.0987 0.217054 80.6209 0 81.2224 0C81.8238 0 82.3382 0.217054 82.7655 0.651163C83.2086 1.06977 83.4302 1.57364 83.4302 2.16279C83.4302 2.75194 83.2086 3.26357 82.7655 3.69768C82.3382 4.11628 81.8238 4.32558 81.2224 4.32558C80.6209 4.32558 80.0987 4.11628 79.6555 3.69768Z" fill="#EEEEEE"/>
<path d="M72.6037 5.27908C72.8886 5.27908 73.1735 5.32559 73.4584 5.41862C74.2656 6.37986 74.8195 8.04652 75.1202 10.4186C75.4209 12.7752 75.5713 15.1163 75.5713 17.4419L71.298 17.7907C71.298 14.2248 71.1635 10.9768 70.8944 8.04652C68.7895 8.80621 67.3888 11.9845 66.6924 17.5814L64.3421 17.7907L63.1313 1.55815L68.2118 0.79071L67.3334 10.3721H67.547C68.196 8.80621 68.9556 7.5659 69.8261 6.65117C70.7124 5.73645 71.6383 5.27908 72.6037 5.27908Z" fill="#EEEEEE"/>
<path d="M55.8917 15.7442C57.5535 15.7442 59.1441 15.4651 60.6635 14.907L61.4707 17.4186C60.1887 17.8062 58.883 18 57.5535 18C56.2241 18 55.037 17.8605 53.9925 17.5814C52.9637 17.3023 52.1724 16.938 51.6184 16.4884C51.3494 15.1861 51.2148 13.8992 51.2148 12.6279C51.2148 10.0388 51.7134 7.68994 52.7105 5.58141C53.7076 3.47289 54.855 2.00002 56.1528 1.16281L60.7347 4.00002C58.5506 5.36436 56.8176 7.1008 55.5356 9.20932C54.2536 11.3178 53.6126 13.4419 53.6126 15.5814C54.2932 15.6899 55.0529 15.7442 55.8917 15.7442Z" fill="#EEEEEE"/>
<path d="M36.9155 17.7907L35.7047 6.27907L40.7851 5.51163L39.2658 17.5814L36.9155 17.7907ZM36.4407 3.69768C36.0133 3.26357 35.7997 2.75194 35.7997 2.16279C35.7997 1.57364 36.0133 1.06977 36.4407 0.651163C36.8838 0.217054 37.4061 0 38.0075 0C38.6089 0 39.1233 0.217054 39.5506 0.651163C39.9938 1.06977 40.2154 1.57364 40.2154 2.16279C40.2154 2.75194 39.9938 3.26357 39.5506 3.69768C39.1233 4.11628 38.6089 4.32558 38.0075 4.32558C37.4061 4.32558 36.8838 4.11628 36.4407 3.69768Z" fill="#EEEEEE"/>
<path d="M29.3889 5.27908C29.6738 5.27908 29.9587 5.32559 30.2435 5.41862C31.0507 6.37986 31.6047 8.04652 31.9054 10.4186C32.2061 12.7752 32.3564 15.1163 32.3564 17.4419L28.0832 17.7907C28.0832 14.2248 27.9486 10.9768 27.6796 8.04652C25.5746 8.80621 24.1739 11.9845 23.4776 17.5814L21.1273 17.7907L19.9165 1.55815L24.9969 0.79071L24.1185 10.3721H24.3322C24.9811 8.80621 25.7408 7.5659 26.6113 6.65117C27.4976 5.73645 28.4235 5.27908 29.3889 5.27908Z" fill="#EEEEEE"/>
<path d="M12.6768 15.7442C14.3387 15.7442 15.9293 15.4651 17.4486 14.907L18.2558 17.4186C16.9738 17.8062 15.6681 18 14.3387 18C13.0092 18 11.8222 17.8605 10.7776 17.5814C9.74887 17.3023 8.95753 16.938 8.40359 16.4884C8.13453 15.1861 8 13.8992 8 12.6279C8 10.0388 8.49855 7.68994 9.49564 5.58141C10.4927 3.47289 11.6402 2.00002 12.938 1.16281L17.5199 4.00002C15.3358 5.36436 13.6027 7.1008 12.3207 9.20932C11.0388 11.3178 10.3978 13.4419 10.3978 15.5814C11.0783 15.6899 11.838 15.7442 12.6768 15.7442Z" fill="#EEEEEE"/>
</svg>
